<?xml version="1.0" encoding="utf-8"?>
<!-- Generator: Adobe Illustrator 23.0.0, SVG Export Plug-In . SVG Version: 6.00 Build 0)  -->
<svg version="1.1" id="Layer_1" xmlns="http://www.w3.org/2000/svg" xmlns:xlink="http://www.w3.org/1999/xlink" x="0px" y="0px"
	 viewBox="0 0 512 512" style="enable-background:new 0 0 512 512;" xml:space="preserve">
<style type="text/css">
	.st0{fill:#EA4335;}
	.st1{fill:#C8CACC;}
	.st2{fill:#FFFFFF;}
	.st3{fill:#666666;}
	.st4{fill:#00AF58;}
	.st5{fill:#20D084;}
	.st6{fill:#807D7D;}
	.st7{fill:#FBBC04;}
	.st8{fill:#F5A209;}
	.st9{fill:#4285F4;}
	.st10{fill:#FBB429;}
	.st11{fill:#FF5B61;}
	.st12{fill:#ECF0F1;}
	.st13{fill:#D0D1D4;}
	.st14{fill:#0F9D58;}
</style>
<path class="st0" d="M256,512c141,0,256-115,256-256C512,115,397,0,256,0S0,115,0,256C0,397,115,512,256,512z"/>
<path class="st1" d="M218.6,357.6l-10.9,38.9l-36.8,27.9v6H256h85.2v-6l-36.8-27.9l-10.9-38.9l-37.4-0.5L218.6,357.6L218.6,357.6z"
	/>
<path class="st2" d="M170.8,427.4v3H256h85.2v-3H170.8L170.8,427.4z"/>
<path class="st3" d="M66,52.8h380c12.5,0,22.7,10.2,22.7,22.7v234.1H43.3V75.5C43.3,63,53.5,52.8,66,52.8L66,52.8z"/>
<path class="st4" d="M58.7,294.2h394.6V75.5c0-4-3.3-7.3-7.3-7.3H66c-4,0-7.3,3.3-7.3,7.3C58.7,75.5,58.7,294.2,58.7,294.2z"/>
<path class="st5" d="M183.6,309.6h178.5L227.2,184l-63.7,63.3L183.6,309.6z"/>
<path class="st6" d="M183.6,309.6h178.5l-16.6-15.4H178.6L183.6,309.6z"/>
<path class="st2" d="M208,228.5c8.5-8.4,8.4-22.2-0.2-30.8c-5.8-5.8-14-7.8-21.3-5.9l-7.1-7.2c-0.9-0.9-2.2-0.9-3.1,0l-11.2,11.1
	c-0.8,0.8-0.8,2.2,0,3.1l6.7,6.8c-2.5,7.6-0.7,16.4,5.4,22.6C185.8,236.7,199.6,236.9,208,228.5L208,228.5z"/>
<path class="st7" d="M180.2,168.5L164,152.1c-5.6-5.6-14.7-5.6-20.3-0.1l-11.6,11.5c-5.6,5.6-5.6,14.7-0.1,20.3l16.2,16.4
	c-3.8,14.4-0.1,31.6,15.2,47.1l63.7-63.3C211.8,168.5,194.7,164.8,180.2,168.5L180.2,168.5z"/>
<path class="st8" d="M132.4,163.3l-0.3,0.3c-5.6,5.6-5.6,14.7-0.1,20.3l16.2,16.4c-3.8,14.4-0.1,31.6,15.2,47.1l1.9-1.9
	c-14.1-15.6-17.3-32.5-13.6-46.9l-17-17.2C129.9,176.4,129.1,169,132.4,163.3z"/>
<path class="st2" d="M468.7,309.6v24.8c0,12.5-11.3,22.7-25,22.7H68.3c-13.8,0-25-10.2-25-22.7v-24.8H468.7z"/>
<path class="st9" d="M145.5,171.6L79.6,285.8v131.9h22.2l-9.3-131.9L154,176C156.3,171,148.5,167.2,145.5,171.6z"/>
<path class="st6" d="M0,451.5h512v-21.2H0V451.5z"/>
<g>
	<path class="st10" d="M168.4,417.7H53c-8.5,0-18.8,12.9-10.3,12.9h132.5C183.8,430.6,176.9,417.7,168.4,417.7z"/>
	<path class="st10" d="M86,276.9c-5.1,0-9.2,4.1-9.2,9.2c0,5.1,4.1,9.2,9.2,9.2s9.2-4.1,9.2-9.2C95.2,281,91.1,276.9,86,276.9z"/>
</g>
<path class="st2" d="M86,281.6c-2.5,0-4.5,2-4.5,4.5c0,2.5,2,4.5,4.5,4.5c2.5,0,4.5-2,4.5-4.5C90.6,283.6,88.6,281.6,86,281.6z"/>
<path class="st11" d="M154.2,413.8l-23.7-3.9v7.9h23.7V413.8z"/>
<path class="st2" d="M223.2,368.2h42.7c2.4,0,4.3,2,4.3,4.3V426c0,2.4-2,4.3-4.3,4.3h-42.7c-2.4,0-4.3-2-4.3-4.3v-53.5
	C218.9,370.1,220.8,368.2,223.2,368.2z"/>
<g>
	<path class="st12" d="M270.2,380.4h12c4,0,7.2,2.8,7.2,6.3v29.5c0,3.4-3.2,6.3-7.2,6.3h-12v-5h12c0.7,0,2.2-0.4,2.2-1.3v-29.5
		c0-0.8-1.5-1.3-2.2-1.3h-12V380.4z"/>
	<path class="st12" d="M264.4,430.3v-62.2h1.5c2.4,0,4.3,1.9,4.3,4.3v53.6c0,2.4-2,4.3-4.3,4.3H264.4z"/>
</g>
<path class="st9" d="M235.9,397.3h12.9v11.5h-12.9V397.3z"/>
<path class="st9" d="M235.9,397.3h12.9l-0.7-2.4h-11.2L235.9,397.3z"/>
<path class="st10" d="M242.8,368.2v27.9c0,0.4-0.9,0.4-0.9,0v-27.9H242.8z"/>
<path class="st3" d="M41,459.2h430v-7.7H41V459.2z"/>
<path class="st13" d="M256,339.5c4,0,7.2-3.2,7.2-7.2c0-4-3.2-7.2-7.2-7.2c-3.9,0-7.2,3.2-7.2,7.2
	C248.8,336.3,252.1,339.5,256,339.5z"/>
<path class="st7" d="M356.4,201.4c-3.1-2.4-7-4.4-10.4-6c-2-1-4-1.9-5.4-2.8c-3.3-2.1-5.7-7.4-5.3-11.9c0.1-1.9,0.9-4.4,3.5-5.6
	c2.8-1.2,4.9,1,5.6,1.7c1.5,1.5,2.7,3.8,3.5,6.1c0.6,1.8,0.7,3,0.6,3.7c-1-0.1-2,0.4-2.4,1.5c-0.4,1.1,0.2,2.4,1.4,2.8
	c1.8,0.6,3.4,0.2,4.4-1.2c1.5,4.6,3.3,8.8,5.5,12.6C357.1,202,356.7,201.7,356.4,201.4z M386.1,280.3L386.1,280.3h18.2v-1.9
	C399,278,392,266,391.5,259.6l-2.4-37.1c8-1,15.4-5.9,21.3-13.5c-0.2,0.9-0.3,1.8-0.3,2.8c0,3,1.6,5.5,4.4,6.8
	c1.1,0.5,2.3,0.8,3.5,0.8c1.8,0,3.6-0.6,5-1.8c3.2-2.6,3.5-5.8,2.2-7.7c-1.1-1.6-3.1-2-4.8-1c-1,0.6-1.4,1.9-0.8,3
	c0.4,0.7,1.1,1,1.8,1.1c-0.2,0.3-0.5,0.8-1.1,1.3c-1,0.9-2.6,1-3.9,0.4c-0.7-0.3-1.8-1.1-1.9-2.9c0-2.5,1.3-4.6,4.1-6.9
	c2.7-2.2,6.4-3.9,9.6-5.5c2.2-1.1,4.2-2.1,5.8-3.1c2.3-1.4,4.3-3.9,5.6-6.9c1.3-2.9,1.9-6.1,1.7-9c-0.3-4.4-2.5-7.7-6.1-9.3
	c-3.9-1.7-8-0.4-11.2,3.5c-0.1,0.1-0.2,0.3-0.3,0.4c0.6-4,0.9-8.2,0.9-12.5h-38.4h-38.4c0,4.3,0.3,8.5,0.9,12.5
	c-0.1-0.1-0.2-0.3-0.3-0.4c-3.3-3.9-7.4-5.2-11.2-3.5c-3.6,1.6-5.8,4.9-6.1,9.3c-0.2,2.9,0.4,6.1,1.7,9c1.4,3,3.4,5.5,5.6,6.9
	c1.6,1,3.7,2,5.8,3.1c3.2,1.6,6.9,3.4,9.6,5.5c2.8,2.2,4.1,4.4,4.1,6.9c0,1.7-1.2,2.5-1.9,2.9c-1.3,0.6-2.9,0.5-3.9-0.4
	c-0.6-0.5-0.9-0.9-1.1-1.3c0.7,0,1.4-0.4,1.8-1.1c0.6-1,0.2-2.4-0.8-3c-1.8-1-3.7-0.6-4.8,1c-1.3,1.9-0.9,5.1,2.2,7.7
	c1.4,1.2,3.2,1.8,5,1.8c1.2,0,2.4-0.3,3.5-0.8c2.7-1.3,4.3-3.8,4.4-6.8c0-1-0.1-1.9-0.3-2.8c5.9,7.6,13.2,12.5,21.3,13.5l-2.4,37.1
	c-0.4,6.5-7.4,18.5-12.8,18.8v1.9H386.1L386.1,280.3z M415.8,201.4L415.8,201.4c-0.4,0.3-0.7,0.6-1,0.9c2.1-3.8,4-8.1,5.5-12.6
	c1,1.4,2.6,1.8,4.4,1.2c1.1-0.4,1.7-1.6,1.4-2.8c-0.3-1-1.4-1.6-2.4-1.5c-0.1-0.7,0-1.9,0.6-3.7c0.8-2.4,2-4.6,3.5-6.1
	c0.7-0.7,2.8-3,5.6-1.7c2.6,1.2,3.4,3.7,3.5,5.6c0.3,4.5-2,9.8-5.3,11.9c-1.4,0.9-3.3,1.8-5.4,2.8
	C422.8,197.1,418.9,199,415.8,201.4L415.8,201.4z"/>
<path class="st8" d="M416.4,162.5c0,0,7.4,50.4-28.7,59.3l2.2,37.7c-0.1,10,8.1,20.8,14.4,20.8v-1.9c-5.4-0.3-12.4-12.3-12.8-18.8
	l-2.4-37.1c8-1,15.3-5.8,21.2-13.4c0-0.1,0.1-0.1,0.1-0.1c0,0,2.8-3.3,4.9-7.1c-0.2,0.1-0.3,0.3-0.5,0.4c0.6-1.1,1.2-2.2,1.8-3.4
	c1.9-4.5,3.7-9.3,3.7-9.3c1.1-3.5,2.6-9.5,3.3-14.6c0.6-4,0.9-8.2,0.9-12.5L416.4,162.5L416.4,162.5z"/>
<g>
	<path class="st3" d="M412.4,313.6h-52.6v-29.5c0-2.1,1.7-3.9,3.9-3.9h44.8c2.1,0,3.9,1.7,3.9,3.9L412.4,313.6L412.4,313.6z"/>
	<path class="st3" d="M417.2,319.6h-62.3v-5c0-1.9,1.6-3.5,3.5-3.5h55.3c1.9,0,3.5,1.6,3.5,3.5V319.6L417.2,319.6z"/>
</g>
<path class="st10" d="M425.4,162.5h-78.6c-0.9,0-1.7-0.8-1.7-1.7v0c0-0.9,0.8-1.7,1.7-1.7h78.6c0.9,0,1.7,0.8,1.7,1.7v0
	C427.1,161.8,426.3,162.5,425.4,162.5z"/>
<path class="st9" d="M312.6,352.9h138.7v4.7c-6.6,8.4-5.5,17.7,0,24.7v4.7H312.6C290.9,386.9,290.9,352.9,312.6,352.9z"/>
<path class="st2" d="M451.3,382.2c-5.6-8.2-6-16.4,0-24.7H312.6c-6.5,0-11.9,5.6-11.9,12.3c0,6.8,5.4,12.3,11.9,12.3L451.3,382.2
	L451.3,382.2z"/>
<g>
	<path class="st12" d="M450,359.5c0.4-0.7,0.8-1.3,1.3-2H312.6c-13.3,0-17,19-3.6,24.1c-9.1-4.4-5.7-19.6,3.9-22.1L450,359.5
		L450,359.5z"/>
	<path class="st12" d="M448.6,361.9h-145c0.3-0.3,0.5-0.6,0.9-0.9h144.6C448.9,361.3,448.8,361.6,448.6,361.9L448.6,361.9z
		 M302.4,363.6L302.4,363.6c-0.2,0.3-0.3,0.6-0.5,0.9h145.7c0.1-0.3,0.2-0.6,0.3-0.9H302.4z M301.2,366.3L301.2,366.3
		c-0.1,0.3-0.2,0.6-0.2,0.9h146c0-0.3,0.1-0.6,0.2-0.9H301.2z M300.8,369L300.8,369c0,0.3,0,0.6,0,0.9v0.1h146c0-0.3,0-0.6,0-0.9
		L300.8,369L300.8,369z M300.9,371.7L300.9,371.7c0,0.3,0.1,0.6,0.2,0.9h146c0-0.3-0.1-0.6-0.1-0.9H300.9z M301.6,374.4L301.6,374.4
		c0.1,0.3,0.3,0.6,0.4,0.9h145.7c-0.1-0.3-0.2-0.6-0.3-0.9H301.6z M303,377.1L303,377.1c0.2,0.3,0.5,0.6,0.7,0.9h145
		c-0.1-0.3-0.3-0.6-0.4-0.9H303L303,377.1z M305.5,379.8L305.5,379.8c0.4,0.3,0.9,0.7,1.4,0.9h143.3c-0.2-0.3-0.4-0.6-0.6-0.9H305.5
		z"/>
</g>
<path class="st14" d="M463.2,386.9H302.3v6c7.6,10.7,6.4,22.6,0,31.5v6h160.9C488.3,430.3,488.3,386.9,463.2,386.9L463.2,386.9z"/>
<path class="st2" d="M302.3,424.4c6.5-10.5,7-21,0-31.5h160.9c7.6,0,13.8,7.1,13.8,15.8c0,8.7-6.2,15.8-13.8,15.8H302.3z"/>
<g>
	<path class="st12" d="M303.9,395.4c-0.5-0.8-1-1.7-1.5-2.5h160.9c15.4,0,19.7,24.3,4.2,30.7c10.6-5.7,6.6-25-4.5-28.2H303.9z"/>
	<path class="st12" d="M305.5,398.4h168.2c-0.3-0.4-0.6-0.8-1-1.2H304.9C305.1,397.6,305.3,398,305.5,398.4L305.5,398.4z
		 M475.1,400.6L475.1,400.6c0.2,0.4,0.4,0.8,0.6,1.2h-169c-0.1-0.4-0.2-0.8-0.4-1.2H475.1L475.1,400.6z M476.4,404.1L476.4,404.1
		c0.1,0.4,0.2,0.8,0.3,1.2H307.4c-0.1-0.4-0.1-0.8-0.2-1.2H476.4z M476.9,407.5L476.9,407.5c0,0.4,0,0.7,0,1.1l0,0.1H307.6
		c0-0.4,0-0.8,0-1.2L476.9,407.5L476.9,407.5z M476.8,410.9L476.8,410.9c-0.1,0.4-0.1,0.8-0.2,1.2H307.3c0.1-0.4,0.1-0.8,0.1-1.2
		H476.8L476.8,410.9z M476,414.4L476,414.4c-0.1,0.4-0.3,0.8-0.5,1.2h-169c0.1-0.4,0.2-0.8,0.3-1.2H476L476,414.4z M474.4,417.8
		L474.4,417.8c-0.3,0.4-0.5,0.8-0.8,1.2H305.4c0.2-0.4,0.3-0.8,0.5-1.2H474.4z M471.4,421.2L471.4,421.2c-0.5,0.4-1.1,0.8-1.6,1.2
		H303.6c0.2-0.4,0.5-0.8,0.7-1.2H471.4z"/>
</g>
<path class="st7" d="M438.8,318.8H331.7v4.7c5.1,8.4,4.2,17.7,0,24.7v4.7h107.1C455.5,352.8,455.5,318.8,438.8,318.8L438.8,318.8z"
	/>
<path class="st2" d="M331.7,348.1c4.3-8.2,4.6-16.4,0-24.7h107.1c5,0,9.2,5.6,9.2,12.3c0,6.8-4.1,12.3-9.2,12.3L331.7,348.1
	L331.7,348.1z"/>
<g>
	<path class="st12" d="M332.7,325.5c-0.3-0.7-0.6-1.3-1-2h107.1c10.2,0,13.1,19,2.8,24.1c7.1-4.4,4.4-19.6-3-22.1H332.7z"/>
	<path class="st12" d="M333.8,327.8h112c-0.2-0.3-0.4-0.6-0.7-0.9H333.4C333.5,327.2,333.6,327.5,333.8,327.8z M446.7,329.6
		L446.7,329.6c0.1,0.3,0.3,0.6,0.4,0.9H334.6c-0.1-0.3-0.2-0.6-0.2-0.9H446.7z M447.5,332.3L447.5,332.3c0.1,0.3,0.1,0.6,0.2,0.9
		H335c0-0.3-0.1-0.6-0.1-0.9H447.5L447.5,332.3z M447.9,334.9L447.9,334.9c0,0.3,0,0.6,0,0.9l0,0.1H335.2c0-0.3,0-0.6,0-0.9H447.9
		L447.9,334.9z M447.8,337.6L447.8,337.6c0,0.3-0.1,0.6-0.1,0.9H335c0-0.3,0.1-0.6,0.1-0.9H447.8z M447.3,340.3L447.3,340.3
		c-0.1,0.3-0.2,0.6-0.3,0.9H334.5c0.1-0.3,0.1-0.6,0.2-0.9H447.3L447.3,340.3z M446.2,343L446.2,343c-0.2,0.3-0.4,0.6-0.6,0.9H333.7
		c0.1-0.3,0.2-0.6,0.3-0.9H446.2z M444.2,345.7L444.2,345.7c-0.3,0.3-0.7,0.7-1.1,0.9H332.5c0.2-0.3,0.3-0.6,0.5-0.9H444.2z"/>
</g>
<path class="st2" d="M149.3,172c-1.5,0-2.8,1.2-2.8,2.8c0,1.5,1.2,2.8,2.8,2.8c1.5,0,2.8-1.2,2.8-2.8
	C152.1,173.2,150.8,172,149.3,172z"/>
</svg>
